<svg xmlns="http://www.w3.org/2000/svg" viewBox="0 0 491 120" width="491" height="120" role="img" aria-label="myTravel"><title>myTravel</title><g transform="translate(10.4,10) scale(1)"><path d="M0 100 L170.68 100 L191.93 0 L21.26 0 ZM7.5 100 L12 100 L33.26 0 L28.76 0 Z" fill="#a81e2d" fill-rule="evenodd"/><path d="M19.9 75.2 29.47 30.2H41.47L39.93 37.44Q42.74 33.52 46.69 31.31Q50.64 29.11 55.31 29.11Q60 29.11 62.75 31.43Q65.5 33.75 66.13 38.18Q69.65 33.52 73.92 31.31Q78.19 29.11 82.55 29.11Q89.36 29.11 91.98 33.92Q94.6 38.74 92.68 47.75L86.84 75.2H74.43L80.29 47.62Q80.84 45.07 80.76 43.01Q80.69 40.95 79.65 39.72Q78.61 38.49 76.19 38.49Q73.33 38.49 70.96 40.35Q68.6 42.22 66.9 45.5Q65.2 48.77 64.29 53.03L59.58 75.2H47.17L53.03 47.62Q53.57 45.07 53.5 43Q53.43 40.93 52.39 39.71Q51.35 38.49 48.96 38.49Q46.11 38.49 43.73 40.33Q41.36 42.18 39.65 45.47Q37.94 48.76 37.02 53.06L32.32 75.2Z" fill="#fbf6ee"/><path d="M97.88 91.45 99.82 82.35H107.4Q108.29 82.35 108.81 81.98Q109.33 81.6 109.91 80.63L113.54 74.33L111.87 78.84L102.61 30.2H116.51L120.41 66.55L119.21 66.38L138.49 30.2H152.35L119.99 84.03Q117.48 88.19 114.21 89.82Q110.94 91.45 107.03 91.45Z" fill="#fbf6ee"/><path d="M210.49 75.2 220.93 26.08H199.73L202.04 15.2H257.39L255.08 26.08H233.8L223.36 75.2Z" fill="#2a211c"/><path d="M252.24 75.2 261.81 30.2H273.8L271.65 40.32L271.43 39.01Q274.63 33.99 279.02 31.55Q283.41 29.11 288 29.11Q289.3 29.11 290.59 29.32Q291.88 29.52 293.08 30.02L289.88 40.62Q287.33 39.86 284.83 39.86Q282.78 39.86 280.41 40.57Q278.04 41.27 275.76 43.05Q273.48 44.83 271.61 48.05Q269.74 51.26 268.68 56.27L264.66 75.2Z" fill="#2a211c"/><path d="M303.85 76.27Q299.54 76.27 296.23 74.76Q292.93 73.25 291.38 70.24Q289.83 67.23 290.78 62.74Q291.81 57.91 295.34 54.52Q298.86 51.14 304.56 49.37Q310.25 47.6 317.81 47.6H324.14L323.15 48.75L323.7 46.15Q324.65 41.69 323.49 39.52Q322.34 37.34 318.58 37.34Q314.98 37.34 312.68 39.24Q310.39 41.13 309.22 44.62L297.05 42.44Q298.52 38.7 301.69 35.67Q304.86 32.64 309.7 30.85Q314.55 29.06 321.05 29.06Q327 29.06 330.72 30.96Q334.45 32.86 335.69 37.12Q336.94 41.38 335.42 48.49L332.17 63.79Q331.88 65.18 332.17 65.64Q332.47 66.1 333.76 66.1H335.79L333.86 75.2H327.93Q323.09 75.2 321.07 72.75Q319.06 70.31 320.03 65.75L320.48 63.64L322.49 64.45Q321.56 66.25 320.07 68.28Q318.59 70.32 316.37 72.14Q314.15 73.96 311.06 75.11Q307.97 76.27 303.85 76.27ZM309.22 67.8Q312.14 67.8 314.68 66.45Q317.21 65.11 319.07 62.43Q320.92 59.75 321.77 55.76L321.98 54.78H316.73Q312.29 54.78 309.55 55.95Q306.82 57.11 305.47 58.79Q304.11 60.47 303.77 62.08Q303.5 63.35 303.82 64.67Q304.13 65.99 305.39 66.9Q306.65 67.8 309.22 67.8Z" fill="#2a211c"/><path d="M354.73 75.2 347.27 30.2H361.13L364.58 66.37H363.44L382.21 30.2H396.07L369.51 75.2Z" fill="#2a211c"/><path d="M414.04 76.29Q407.44 76.29 402.78 73.41Q398.12 70.52 396.17 65.21Q394.22 59.91 395.77 52.65Q397.3 45.44 401.44 40.16Q405.58 34.88 411.44 31.99Q417.3 29.11 423.99 29.11Q427.71 29.11 431.29 30.24Q434.86 31.38 437.45 34.23Q440.05 37.09 440.92 42.19Q441.79 47.28 440.11 55.18H403.2L404.71 48.12H430.55L428.76 50.32Q429.39 45.83 428.66 43.07Q427.92 40.32 426.13 39.06Q424.35 37.81 421.81 37.81Q418.5 37.81 415.9 39.69Q413.31 41.56 411.5 44.91Q409.68 48.26 408.74 52.71Q407.32 59.38 409.02 63.25Q410.71 67.12 415.9 67.12Q419.3 67.12 422.11 65.38Q424.92 63.64 426.97 60.05L437.6 62.92Q435.01 67.56 431.19 70.52Q427.36 73.47 422.91 74.88Q418.46 76.29 414.04 76.29Z" fill="#2a211c"/><path d="M454.88 75.2Q449.85 75.2 447.7 72.76Q445.54 70.33 446.51 65.75L457.79 12.7H470.2L459.34 63.79Q459.05 65.17 459.34 65.64Q459.64 66.1 460.93 66.1H464.4L462.46 75.2Z" fill="#2a211c"/></g></svg>